# xmcd
# Track frame offsets:
# 150
# 16312
# 41160
# 74935
# 101682
#
# Disc length: 1816 seconds
# Revision: 4
# Processed by: cddbd v1.5PL3 Copyright (c) Steve Scherf et al.
# Submitted via: VisiTrax 2.9.9.202 - For more info visit www.synapsa.com
#
DISCID=46071605
DTITLE=M People - Moving on Up [CD Single)
DYEAR=1993
DGENRE=Dance
TTITLE0=Moving on Up (M People Master Edit)
TTITLE1=Moving on Up (M People Master Mix)
TTITLE2=Moving on Up (MK Movin' Mix)
TTITLE3=Moving on Up (Roger's Gospel Revival)
TTITLE4=Someday (Sasha's Full Master)
EXTD=
EXTT0=
EXTT1=
EXTT2=
EXTT3=
EXTT4=
PLAYORDER=
